<svg xmlns="http://www.w3.org/2000/svg" xmlns:xlink="http://www.w3.org/1999/xlink" width="453" height="124" viewBox="0 0 453 124">
  <defs>
    <clipPath id="clip-path">
      <rect width="453" height="124" fill="none"/>
    </clipPath>
  </defs>
  <g id="Repeat_Grid_16" data-name="Repeat Grid 16" opacity="0.115" clip-path="url(#clip-path)">
    <g transform="translate(-1991 -271)">
      <circle id="Ellipse_36" data-name="Ellipse 36" cx="3" cy="3" r="3" transform="translate(1991 271)" fill="#46a1bc"/>
    </g>
    <g transform="translate(-1965 -271)">
      <circle id="Ellipse_36-2" data-name="Ellipse 36" cx="3" cy="3" r="3" transform="translate(1991 271)" fill="#46a1bc"/>
    </g>
    <g transform="translate(-1939 -271)">
      <circle id="Ellipse_36-3" data-name="Ellipse 36" cx="3" cy="3" r="3" transform="translate(1991 271)" fill="#46a1bc"/>
    </g>
    <g transform="translate(-1913 -271)">
      <circle id="Ellipse_36-4" data-name="Ellipse 36" cx="3" cy="3" r="3" transform="translate(1991 271)" fill="#46a1bc"/>
    </g>
    <g transform="translate(-1887 -271)">
      <circle id="Ellipse_36-5" data-name="Ellipse 36" cx="3" cy="3" r="3" transform="translate(1991 271)" fill="#46a1bc"/>
    </g>
    <g transform="translate(-1861 -271)">
      <circle id="Ellipse_36-6" data-name="Ellipse 36" cx="3" cy="3" r="3" transform="translate(1991 271)" fill="#46a1bc"/>
    </g>
    <g transform="translate(-1835 -271)">
      <circle id="Ellipse_36-7" data-name="Ellipse 36" cx="3" cy="3" r="3" transform="translate(1991 271)" fill="#46a1bc"/>
    </g>
    <g transform="translate(-1809 -271)">
      <circle id="Ellipse_36-8" data-name="Ellipse 36" cx="3" cy="3" r="3" transform="translate(1991 271)" fill="#46a1bc"/>
    </g>
    <g transform="translate(-1783 -271)">
      <circle id="Ellipse_36-9" data-name="Ellipse 36" cx="3" cy="3" r="3" transform="translate(1991 271)" fill="#46a1bc"/>
    </g>
    <g transform="translate(-1757 -271)">
      <circle id="Ellipse_36-10" data-name="Ellipse 36" cx="3" cy="3" r="3" transform="translate(1991 271)" fill="#46a1bc"/>
    </g>
    <g transform="translate(-1731 -271)">
      <circle id="Ellipse_36-11" data-name="Ellipse 36" cx="3" cy="3" r="3" transform="translate(1991 271)" fill="#46a1bc"/>
    </g>
    <g transform="translate(-1705 -271)">
      <circle id="Ellipse_36-12" data-name="Ellipse 36" cx="3" cy="3" r="3" transform="translate(1991 271)" fill="#46a1bc"/>
    </g>
    <g transform="translate(-1679 -271)">
      <circle id="Ellipse_36-13" data-name="Ellipse 36" cx="3" cy="3" r="3" transform="translate(1991 271)" fill="#46a1bc"/>
    </g>
    <g transform="translate(-1653 -271)">
      <circle id="Ellipse_36-14" data-name="Ellipse 36" cx="3" cy="3" r="3" transform="translate(1991 271)" fill="#46a1bc"/>
    </g>
    <g transform="translate(-1627 -271)">
      <circle id="Ellipse_36-15" data-name="Ellipse 36" cx="3" cy="3" r="3" transform="translate(1991 271)" fill="#46a1bc"/>
    </g>
    <g transform="translate(-1601 -271)">
      <circle id="Ellipse_36-16" data-name="Ellipse 36" cx="3" cy="3" r="3" transform="translate(1991 271)" fill="#46a1bc"/>
    </g>
    <g transform="translate(-1575 -271)">
      <circle id="Ellipse_36-17" data-name="Ellipse 36" cx="3" cy="3" r="3" transform="translate(1991 271)" fill="#46a1bc"/>
    </g>
    <g transform="translate(-1549 -271)">
      <circle id="Ellipse_36-18" data-name="Ellipse 36" cx="3" cy="3" r="3" transform="translate(1991 271)" fill="#46a1bc"/>
    </g>
    <g transform="translate(-1991 -245)">
      <circle id="Ellipse_36-19" data-name="Ellipse 36" cx="3" cy="3" r="3" transform="translate(1991 271)" fill="#46a1bc"/>
    </g>
    <g transform="translate(-1965 -245)">
      <circle id="Ellipse_36-20" data-name="Ellipse 36" cx="3" cy="3" r="3" transform="translate(1991 271)" fill="#46a1bc"/>
    </g>
    <g transform="translate(-1939 -245)">
      <circle id="Ellipse_36-21" data-name="Ellipse 36" cx="3" cy="3" r="3" transform="translate(1991 271)" fill="#46a1bc"/>
    </g>
    <g transform="translate(-1913 -245)">
      <circle id="Ellipse_36-22" data-name="Ellipse 36" cx="3" cy="3" r="3" transform="translate(1991 271)" fill="#46a1bc"/>
    </g>
    <g transform="translate(-1887 -245)">
      <circle id="Ellipse_36-23" data-name="Ellipse 36" cx="3" cy="3" r="3" transform="translate(1991 271)" fill="#46a1bc"/>
    </g>
    <g transform="translate(-1861 -245)">
      <circle id="Ellipse_36-24" data-name="Ellipse 36" cx="3" cy="3" r="3" transform="translate(1991 271)" fill="#46a1bc"/>
    </g>
    <g transform="translate(-1835 -245)">
      <circle id="Ellipse_36-25" data-name="Ellipse 36" cx="3" cy="3" r="3" transform="translate(1991 271)" fill="#46a1bc"/>
    </g>
    <g transform="translate(-1809 -245)">
      <circle id="Ellipse_36-26" data-name="Ellipse 36" cx="3" cy="3" r="3" transform="translate(1991 271)" fill="#46a1bc"/>
    </g>
    <g transform="translate(-1783 -245)">
      <circle id="Ellipse_36-27" data-name="Ellipse 36" cx="3" cy="3" r="3" transform="translate(1991 271)" fill="#46a1bc"/>
    </g>
    <g transform="translate(-1757 -245)">
      <circle id="Ellipse_36-28" data-name="Ellipse 36" cx="3" cy="3" r="3" transform="translate(1991 271)" fill="#46a1bc"/>
    </g>
    <g transform="translate(-1731 -245)">
      <circle id="Ellipse_36-29" data-name="Ellipse 36" cx="3" cy="3" r="3" transform="translate(1991 271)" fill="#46a1bc"/>
    </g>
    <g transform="translate(-1705 -245)">
      <circle id="Ellipse_36-30" data-name="Ellipse 36" cx="3" cy="3" r="3" transform="translate(1991 271)" fill="#46a1bc"/>
    </g>
    <g transform="translate(-1679 -245)">
      <circle id="Ellipse_36-31" data-name="Ellipse 36" cx="3" cy="3" r="3" transform="translate(1991 271)" fill="#46a1bc"/>
    </g>
    <g transform="translate(-1653 -245)">
      <circle id="Ellipse_36-32" data-name="Ellipse 36" cx="3" cy="3" r="3" transform="translate(1991 271)" fill="#46a1bc"/>
    </g>
    <g transform="translate(-1627 -245)">
      <circle id="Ellipse_36-33" data-name="Ellipse 36" cx="3" cy="3" r="3" transform="translate(1991 271)" fill="#46a1bc"/>
    </g>
    <g transform="translate(-1601 -245)">
      <circle id="Ellipse_36-34" data-name="Ellipse 36" cx="3" cy="3" r="3" transform="translate(1991 271)" fill="#46a1bc"/>
    </g>
    <g transform="translate(-1575 -245)">
      <circle id="Ellipse_36-35" data-name="Ellipse 36" cx="3" cy="3" r="3" transform="translate(1991 271)" fill="#46a1bc"/>
    </g>
    <g transform="translate(-1549 -245)">
      <circle id="Ellipse_36-36" data-name="Ellipse 36" cx="3" cy="3" r="3" transform="translate(1991 271)" fill="#46a1bc"/>
    </g>
    <g transform="translate(-1991 -219)">
      <circle id="Ellipse_36-37" data-name="Ellipse 36" cx="3" cy="3" r="3" transform="translate(1991 271)" fill="#46a1bc"/>
    </g>
    <g transform="translate(-1965 -219)">
      <circle id="Ellipse_36-38" data-name="Ellipse 36" cx="3" cy="3" r="3" transform="translate(1991 271)" fill="#46a1bc"/>
    </g>
    <g transform="translate(-1939 -219)">
      <circle id="Ellipse_36-39" data-name="Ellipse 36" cx="3" cy="3" r="3" transform="translate(1991 271)" fill="#46a1bc"/>
    </g>
    <g transform="translate(-1913 -219)">
      <circle id="Ellipse_36-40" data-name="Ellipse 36" cx="3" cy="3" r="3" transform="translate(1991 271)" fill="#46a1bc"/>
    </g>
    <g transform="translate(-1887 -219)">
      <circle id="Ellipse_36-41" data-name="Ellipse 36" cx="3" cy="3" r="3" transform="translate(1991 271)" fill="#46a1bc"/>
    </g>
    <g transform="translate(-1861 -219)">
      <circle id="Ellipse_36-42" data-name="Ellipse 36" cx="3" cy="3" r="3" transform="translate(1991 271)" fill="#46a1bc"/>
    </g>
    <g transform="translate(-1835 -219)">
      <circle id="Ellipse_36-43" data-name="Ellipse 36" cx="3" cy="3" r="3" transform="translate(1991 271)" fill="#46a1bc"/>
    </g>
    <g transform="translate(-1809 -219)">
      <circle id="Ellipse_36-44" data-name="Ellipse 36" cx="3" cy="3" r="3" transform="translate(1991 271)" fill="#46a1bc"/>
    </g>
    <g transform="translate(-1783 -219)">
      <circle id="Ellipse_36-45" data-name="Ellipse 36" cx="3" cy="3" r="3" transform="translate(1991 271)" fill="#46a1bc"/>
    </g>
    <g transform="translate(-1757 -219)">
      <circle id="Ellipse_36-46" data-name="Ellipse 36" cx="3" cy="3" r="3" transform="translate(1991 271)" fill="#46a1bc"/>
    </g>
    <g transform="translate(-1731 -219)">
      <circle id="Ellipse_36-47" data-name="Ellipse 36" cx="3" cy="3" r="3" transform="translate(1991 271)" fill="#46a1bc"/>
    </g>
    <g transform="translate(-1705 -219)">
      <circle id="Ellipse_36-48" data-name="Ellipse 36" cx="3" cy="3" r="3" transform="translate(1991 271)" fill="#46a1bc"/>
    </g>
    <g transform="translate(-1679 -219)">
      <circle id="Ellipse_36-49" data-name="Ellipse 36" cx="3" cy="3" r="3" transform="translate(1991 271)" fill="#46a1bc"/>
    </g>
    <g transform="translate(-1653 -219)">
      <circle id="Ellipse_36-50" data-name="Ellipse 36" cx="3" cy="3" r="3" transform="translate(1991 271)" fill="#46a1bc"/>
    </g>
    <g transform="translate(-1627 -219)">
      <circle id="Ellipse_36-51" data-name="Ellipse 36" cx="3" cy="3" r="3" transform="translate(1991 271)" fill="#46a1bc"/>
    </g>
    <g transform="translate(-1601 -219)">
      <circle id="Ellipse_36-52" data-name="Ellipse 36" cx="3" cy="3" r="3" transform="translate(1991 271)" fill="#46a1bc"/>
    </g>
    <g transform="translate(-1575 -219)">
      <circle id="Ellipse_36-53" data-name="Ellipse 36" cx="3" cy="3" r="3" transform="translate(1991 271)" fill="#46a1bc"/>
    </g>
    <g transform="translate(-1549 -219)">
      <circle id="Ellipse_36-54" data-name="Ellipse 36" cx="3" cy="3" r="3" transform="translate(1991 271)" fill="#46a1bc"/>
    </g>
    <g transform="translate(-1991 -193)">
      <circle id="Ellipse_36-55" data-name="Ellipse 36" cx="3" cy="3" r="3" transform="translate(1991 271)" fill="#46a1bc"/>
    </g>
    <g transform="translate(-1965 -193)">
      <circle id="Ellipse_36-56" data-name="Ellipse 36" cx="3" cy="3" r="3" transform="translate(1991 271)" fill="#46a1bc"/>
    </g>
    <g transform="translate(-1939 -193)">
      <circle id="Ellipse_36-57" data-name="Ellipse 36" cx="3" cy="3" r="3" transform="translate(1991 271)" fill="#46a1bc"/>
    </g>
    <g transform="translate(-1913 -193)">
      <circle id="Ellipse_36-58" data-name="Ellipse 36" cx="3" cy="3" r="3" transform="translate(1991 271)" fill="#46a1bc"/>
    </g>
    <g transform="translate(-1887 -193)">
      <circle id="Ellipse_36-59" data-name="Ellipse 36" cx="3" cy="3" r="3" transform="translate(1991 271)" fill="#46a1bc"/>
    </g>
    <g transform="translate(-1861 -193)">
      <circle id="Ellipse_36-60" data-name="Ellipse 36" cx="3" cy="3" r="3" transform="translate(1991 271)" fill="#46a1bc"/>
    </g>
    <g transform="translate(-1835 -193)">
      <circle id="Ellipse_36-61" data-name="Ellipse 36" cx="3" cy="3" r="3" transform="translate(1991 271)" fill="#46a1bc"/>
    </g>
    <g transform="translate(-1809 -193)">
      <circle id="Ellipse_36-62" data-name="Ellipse 36" cx="3" cy="3" r="3" transform="translate(1991 271)" fill="#46a1bc"/>
    </g>
    <g transform="translate(-1783 -193)">
      <circle id="Ellipse_36-63" data-name="Ellipse 36" cx="3" cy="3" r="3" transform="translate(1991 271)" fill="#46a1bc"/>
    </g>
    <g transform="translate(-1757 -193)">
      <circle id="Ellipse_36-64" data-name="Ellipse 36" cx="3" cy="3" r="3" transform="translate(1991 271)" fill="#46a1bc"/>
    </g>
    <g transform="translate(-1731 -193)">
      <circle id="Ellipse_36-65" data-name="Ellipse 36" cx="3" cy="3" r="3" transform="translate(1991 271)" fill="#46a1bc"/>
    </g>
    <g transform="translate(-1705 -193)">
      <circle id="Ellipse_36-66" data-name="Ellipse 36" cx="3" cy="3" r="3" transform="translate(1991 271)" fill="#46a1bc"/>
    </g>
    <g transform="translate(-1679 -193)">
      <circle id="Ellipse_36-67" data-name="Ellipse 36" cx="3" cy="3" r="3" transform="translate(1991 271)" fill="#46a1bc"/>
    </g>
    <g transform="translate(-1653 -193)">
      <circle id="Ellipse_36-68" data-name="Ellipse 36" cx="3" cy="3" r="3" transform="translate(1991 271)" fill="#46a1bc"/>
    </g>
    <g transform="translate(-1627 -193)">
      <circle id="Ellipse_36-69" data-name="Ellipse 36" cx="3" cy="3" r="3" transform="translate(1991 271)" fill="#46a1bc"/>
    </g>
    <g transform="translate(-1601 -193)">
      <circle id="Ellipse_36-70" data-name="Ellipse 36" cx="3" cy="3" r="3" transform="translate(1991 271)" fill="#46a1bc"/>
    </g>
    <g transform="translate(-1575 -193)">
      <circle id="Ellipse_36-71" data-name="Ellipse 36" cx="3" cy="3" r="3" transform="translate(1991 271)" fill="#46a1bc"/>
    </g>
    <g transform="translate(-1549 -193)">
      <circle id="Ellipse_36-72" data-name="Ellipse 36" cx="3" cy="3" r="3" transform="translate(1991 271)" fill="#46a1bc"/>
    </g>
    <g transform="translate(-1991 -167)">
      <circle id="Ellipse_36-73" data-name="Ellipse 36" cx="3" cy="3" r="3" transform="translate(1991 271)" fill="#46a1bc"/>
    </g>
    <g transform="translate(-1965 -167)">
      <circle id="Ellipse_36-74" data-name="Ellipse 36" cx="3" cy="3" r="3" transform="translate(1991 271)" fill="#46a1bc"/>
    </g>
    <g transform="translate(-1939 -167)">
      <circle id="Ellipse_36-75" data-name="Ellipse 36" cx="3" cy="3" r="3" transform="translate(1991 271)" fill="#46a1bc"/>
    </g>
    <g transform="translate(-1913 -167)">
      <circle id="Ellipse_36-76" data-name="Ellipse 36" cx="3" cy="3" r="3" transform="translate(1991 271)" fill="#46a1bc"/>
    </g>
    <g transform="translate(-1887 -167)">
      <circle id="Ellipse_36-77" data-name="Ellipse 36" cx="3" cy="3" r="3" transform="translate(1991 271)" fill="#46a1bc"/>
    </g>
    <g transform="translate(-1861 -167)">
      <circle id="Ellipse_36-78" data-name="Ellipse 36" cx="3" cy="3" r="3" transform="translate(1991 271)" fill="#46a1bc"/>
    </g>
    <g transform="translate(-1835 -167)">
      <circle id="Ellipse_36-79" data-name="Ellipse 36" cx="3" cy="3" r="3" transform="translate(1991 271)" fill="#46a1bc"/>
    </g>
    <g transform="translate(-1809 -167)">
      <circle id="Ellipse_36-80" data-name="Ellipse 36" cx="3" cy="3" r="3" transform="translate(1991 271)" fill="#46a1bc"/>
    </g>
    <g transform="translate(-1783 -167)">
      <circle id="Ellipse_36-81" data-name="Ellipse 36" cx="3" cy="3" r="3" transform="translate(1991 271)" fill="#46a1bc"/>
    </g>
    <g transform="translate(-1757 -167)">
      <circle id="Ellipse_36-82" data-name="Ellipse 36" cx="3" cy="3" r="3" transform="translate(1991 271)" fill="#46a1bc"/>
    </g>
    <g transform="translate(-1731 -167)">
      <circle id="Ellipse_36-83" data-name="Ellipse 36" cx="3" cy="3" r="3" transform="translate(1991 271)" fill="#46a1bc"/>
    </g>
    <g transform="translate(-1705 -167)">
      <circle id="Ellipse_36-84" data-name="Ellipse 36" cx="3" cy="3" r="3" transform="translate(1991 271)" fill="#46a1bc"/>
    </g>
    <g transform="translate(-1679 -167)">
      <circle id="Ellipse_36-85" data-name="Ellipse 36" cx="3" cy="3" r="3" transform="translate(1991 271)" fill="#46a1bc"/>
    </g>
    <g transform="translate(-1653 -167)">
      <circle id="Ellipse_36-86" data-name="Ellipse 36" cx="3" cy="3" r="3" transform="translate(1991 271)" fill="#46a1bc"/>
    </g>
    <g transform="translate(-1627 -167)">
      <circle id="Ellipse_36-87" data-name="Ellipse 36" cx="3" cy="3" r="3" transform="translate(1991 271)" fill="#46a1bc"/>
    </g>
    <g transform="translate(-1601 -167)">
      <circle id="Ellipse_36-88" data-name="Ellipse 36" cx="3" cy="3" r="3" transform="translate(1991 271)" fill="#46a1bc"/>
    </g>
    <g transform="translate(-1575 -167)">
      <circle id="Ellipse_36-89" data-name="Ellipse 36" cx="3" cy="3" r="3" transform="translate(1991 271)" fill="#46a1bc"/>
    </g>
    <g transform="translate(-1549 -167)">
      <circle id="Ellipse_36-90" data-name="Ellipse 36" cx="3" cy="3" r="3" transform="translate(1991 271)" fill="#46a1bc"/>
    </g>
  </g>
</svg>
