<svg xmlns="http://www.w3.org/2000/svg" width="250.722" height="254.228" viewBox="0 0 250.722 254.228">
  <g id="Group_217543" data-name="Group 217543" transform="translate(0.001 150.454) rotate(-48)" opacity="0.8">
    <path id="Path_157356" data-name="Path 157356" d="M79.916,152.443l-.167-.75L60.141,85.831S13.4,96.644,16.007,92.141C16.618,91.083,52.979,50.7,52.979,50.7L.439,2.348A1.352,1.352,0,0,1,1.75.061L197.963,58.572a1.384,1.384,0,0,1,.92,1.644,1.584,1.584,0,0,1-.3.7,1.428,1.428,0,0,1-.589.863L81.836,152.6l-.569.382Z" transform="translate(1.746 1.146)" fill="#e3e3e3"/>
    <path id="Path_157357" data-name="Path 157357" d="M2.88,0A17.419,17.419,0,0,0,.1.665C-.356,1.458.75,1.1,2.88,0" transform="translate(17.653 92.623)" fill="#fff"/>
    <path id="Path_157358" data-name="Path 157358" d="M0,22.86s25.6-2.741,40.862-7.35L36.252,0Z" transform="translate(20.51 71.163)" fill="#efefef"/>
    <path id="Path_157359" data-name="Path 157359" d="M0,9.156,20.353,77.367a5.454,5.454,0,0,0,8.484,2.827S132.908.158,132.373,0C132.373,0,51.994,4.726,0,9.156" transform="translate(62.179 61.707)" fill="#e6fcff"/>
    <path id="Path_157360" data-name="Path 157360" d="M43.881,42.176.322,1.722A.991.991,0,0,1,1.279.045L185.891,54.483,47.434,43.744a5.941,5.941,0,0,1-3.553-1.567" transform="translate(12.331 4.535)" fill="#e6fcff"/>
    <path id="Path_157361" data-name="Path 157361" d="M36.584.229,0,41.236C1.578,44.253,37.767,19.59,37.767,19.59l1.776-.549L182.877,9.31,38.535.027c-.415-.018-1.671-.112-1.951.2" transform="translate(17.753 52.052)" fill="#e3e3e3"/>
    <path id="Path_157362" data-name="Path 157362" d="M45.758.073Q35.681,2.4,25.524,4.377c-4.908.957-9.834,1.876-14.8,2.513a44.841,44.841,0,0,1-5.384.492A6.092,6.092,0,0,1,3.7,7.318c-.472-.137.118.11-.036.429C4.53,5.944.889,6,.222,7.387-1.092,10.107,3.8,9.964,5.194,9.916A108.007,108.007,0,0,0,20.552,7.8c8.655-1.561,17.272-3.379,25.84-5.359,2.245-.519,1.6-2.884-.635-2.368" transform="translate(15.815 85.72)" fill="#6a79a8"/>
    <path id="Path_157363" data-name="Path 157363" d="M36.908,1.041.324,42.049a1,1,0,0,0-.153,1.283C2.62,46.7,12.587,39.61,14.661,38.4,21.926,34.146,28.995,29.555,36,24.9c2.4-1.6,4-3.183,6.708-3.367L54.8,20.708l100.447-6.819,29.288-1.99c1.492-.1,3.088-2.4.807-2.549L135.171,6.124l-78.3-5.035L44.748.309c-2-.129-4.761-.648-6.658.043-2.119.771-1.548,3.177.639,2.381,1.287-.468,3.329.031,4.621.113L53.7,3.512,88.117,5.725l78.075,5.021,17.874,1.15.807-2.55L111.72,14.313l-49.3,3.346-15.7,1.067c-2.49.169-5.354.013-7.682,1.072a37.965,37.965,0,0,0-4.982,3.244q-5.525,3.68-11.122,7.251c-4.18,2.658-8.388,5.29-12.714,7.708-1.607.9-3.229,1.786-4.9,2.555a11.27,11.27,0,0,0-1.886.787c-.9.681-.561-.416.05.424q-.077.641-.154,1.283L39.912,2.043c1.5-1.684-1.956-2.177-3-1" transform="translate(15.925 50.74)" fill="#6a79a8"/>
    <path id="Path_157364" data-name="Path 157364" d="M83.468,153.107C81.4,143.8,78.021,134.621,75.3,125.488L62.08,81.072,58.967,70.619c-.359-1.206-2.257-.73-2.979-.253q-6.912,4.568-13.933,8.969C35.174,83.664,28.2,88.417,20.734,91.69c-.3.133-3.944,1.43-.946,1.777-.022,0,.788-.981,1.1-1.353,1.816-2.174,3.7-4.295,5.566-6.423Q35.365,75.545,44.393,65.5q5.9-6.6,11.824-13.191c.262-.292.54-.888.168-1.23L23.875,21.16,6.349,5.03c.028.027-3.863-3.416-3.9-2.672a16.434,16.434,0,0,0,1.761.525l84.541,25.21L189.048,58l5.684,1.7c.883.263,2.5.419,3.249.969,1.858,1.365-1.066,2.823-2.331,3.812l-33.833,26.45-78.1,61.06c-.618.483-1.224.966-1.875,1.4l2.235-.409-1.351-.536c-1.407-.558-4.212,1.461-2.122,2.29,3.435,1.363,5.82-1.555,8.4-3.574l15.247-11.92,47.679-37.275,41.446-32.4a90.158,90.158,0,0,0,7.509-5.871c3.677-3.577.138-5.045-2.814-5.926l-92.9-27.7L8.811,1.331C6.5.641,3.284-.951,1.113.78c-2.273,1.811-.6,3.47.906,4.858l6.717,6.181,41.3,38.011,3.026,2.785q.084-.614.168-1.23c-10.483,11.66-20.973,23.32-31.293,35.126-1.054,1.206-9.009,8.508-3.448,8.332,2.649-.084,5.57-2.038,7.812-3.245,4.14-2.228,8.173-4.657,12.181-7.112Q48.52,78.339,58.336,71.84l-2.979-.253,21.512,72.256c1.008,3.388,2.221,6.779,2.989,10.231.344,1.541,3.962.611,3.61-.967" transform="translate(-0.001 0)" fill="#6a79a8"/>
  </g>
</svg>
